<svg width="600" height="400" viewBox="0 0 600 400" fill="none" xmlns="http://www.w3.org/2000/svg">
  <!-- Main Container -->
  <rect width="600" height="400" rx="16" fill="white" />
  
  <!-- Header Border -->
  <line x1="24" y1="64" x2="576" y2="64" stroke="#e5e5e5" stroke-width="1" />

  <!-- Logo -->
  <rect x="24" y="20" width="24" height="24" rx="6" fill="#0a0a0a" />
  <path d="M30 22C30 22 28.5 23.5 27 23.5C25.3431 23.5 24 22.1569 24 20.5C24 18.8431 25.3431 17.5 27 17.5C28.5 17.5 30 19 30 19" stroke="white" stroke-width="1.5" stroke-linecap="round" stroke-linejoin="round" />
  <path d="M33 19C33 19 34.5 17.5 36 17.5C37.6569 17.5 39 18.8431 39 20.5C39 22.1569 37.6569 23.5 36 23.5C34.5 23.5 33 22 33 22" stroke="white" stroke-width="1.5" stroke-linecap="round" stroke-linejoin="round" />
  <path d="M28.5 20.5H34.5" stroke="white" stroke-width="1.5" stroke-linecap="round" stroke-linejoin="round" />
  
  <text x="56" y="37" font-family="sans-serif" font-size="16" font-weight="bold" fill="#0a0a0a">LinkLy</text>

  <!-- Header Links -->
  <text x="320" y="36" font-family="sans-serif" font-size="12" fill="#737373">Dashboard</text>
  <text x="395" y="36" font-family="sans-serif" font-size="12" fill="#737373">Notifications</text>
  <text x="475" y="36" font-family="sans-serif" font-size="12" fill="#737373">Settings</text>
  
  <!-- Avatar -->
  <circle cx="550" cy="32" r="12" fill="#e5e5e5" />

  <!-- Kanban Columns -->
  <!-- Column 1: Planned -->
  <circle cx="30" cy="94" r="4" fill="#facc15" />
  <text x="42" y="98" font-family="sans-serif" font-size="14" font-weight="bold" fill="#0a0a0a">Planned</text>
  <text x="104" y="97" font-family="sans-serif" font-size="10" fill="#a3a3a3">3 open tasks</text>

  <!-- Card 1 -->
  <rect x="24" y="116" width="170" height="90" rx="8" fill="white" stroke="#e5e5e5" stroke-width="1.5" />
  <rect x="36" y="128" width="46" height="18" rx="4" fill="#ffedd5" />
  <text x="44" y="140" font-family="sans-serif" font-size="10" fill="#ea580c">Internal</text>
  <rect x="88" y="128" width="56" height="18" rx="4" fill="#f3e8ff" />
  <text x="96" y="140" font-family="sans-serif" font-size="10" fill="#9333ea">Marketing</text>
  <text x="36" y="164" font-family="sans-serif" font-size="12" font-weight="bold" fill="#0a0a0a">Monthly Product</text>
  <text x="36" y="180" font-family="sans-serif" font-size="12" font-weight="bold" fill="#0a0a0a">Discussion</text>
  <text x="36" y="196" font-family="sans-serif" font-size="10" fill="#737373">Due Date: 24 Jan 2023</text>

  <!-- Card 2 -->
  <rect x="24" y="218" width="170" height="90" rx="8" fill="white" stroke="#e5e5e5" stroke-width="1.5" />
  <rect x="36" y="230" width="56" height="18" rx="4" fill="#dcfce7" />
  <text x="44" y="242" font-family="sans-serif" font-size="10" fill="#16a34a">Marketing</text>
  <rect x="98" y="230" width="40" height="18" rx="4" fill="#dbeafe" />
  <text x="106" y="242" font-family="sans-serif" font-size="10" fill="#2563eb">Event</text>
  <text x="36" y="266" font-family="sans-serif" font-size="12" font-weight="bold" fill="#0a0a0a">Update New Social</text>
  <text x="36" y="282" font-family="sans-serif" font-size="12" font-weight="bold" fill="#0a0a0a">Media Post</text>
  <text x="36" y="298" font-family="sans-serif" font-size="10" fill="#737373">Due Date: 14 Jan 2023</text>

  <!-- Column 2: Upcoming -->
  <circle cx="218" cy="94" r="4" fill="#3b82f6" />
  <text x="230" y="98" font-family="sans-serif" font-size="14" font-weight="bold" fill="#0a0a0a">Upcoming</text>
  <text x="306" y="97" font-family="sans-serif" font-size="10" fill="#a3a3a3">2 open tasks</text>

  <!-- Card 3 -->
  <rect x="212" y="116" width="170" height="90" rx="8" fill="white" stroke="#e5e5e5" stroke-width="1.5" />
  <rect x="224" y="128" width="46" height="18" rx="4" fill="#dcfce7" />
  <text x="232" y="140" font-family="sans-serif" font-size="10" fill="#16a34a">Report</text>
  <rect x="276" y="128" width="40" height="18" rx="4" fill="#dbeafe" />
  <text x="284" y="140" font-family="sans-serif" font-size="10" fill="#2563eb">Event</text>
  <text x="224" y="164" font-family="sans-serif" font-size="12" font-weight="bold" fill="#0a0a0a">Create Monthly</text>
  <text x="224" y="180" font-family="sans-serif" font-size="12" font-weight="bold" fill="#0a0a0a">Revenue Recap</text>
  <text x="224" y="196" font-family="sans-serif" font-size="10" fill="#737373">Due Date: 15 Jan 2023</text>

  <!-- Column 3: Completed -->
  <circle cx="406" cy="94" r="4" fill="#22c55e" />
  <text x="418" y="98" font-family="sans-serif" font-size="14" font-weight="bold" fill="#0a0a0a">Completed</text>
  <text x="498" y="92" font-family="sans-serif" font-size="10" fill="#a3a3a3">2 completed</text>
  <text x="498" y="104" font-family="sans-serif" font-size="10" fill="#a3a3a3">tasks</text>

  <!-- Card 4 -->
  <rect x="400" y="116" width="170" height="90" rx="8" fill="white" stroke="#e5e5e5" stroke-width="1.5" />
  <rect x="412" y="128" width="46" height="18" rx="4" fill="#fee2e2" />
  <text x="420" y="140" font-family="sans-serif" font-size="10" fill="#dc2626">Urgent</text>
  <rect x="464" y="128" width="60" height="18" rx="4" fill="#dbeafe" />
  <text x="472" y="140" font-family="sans-serif" font-size="10" fill="#2563eb">Document</text>
  <text x="412" y="164" font-family="sans-serif" font-size="12" font-weight="bold" fill="#0a0a0a">Uploading New Items</text>
  <text x="412" y="196" font-family="sans-serif" font-size="10" fill="#737373">Due Date: 08 Jan 2023</text>
  
  <!-- Bottom Fade Gradient -->
  <defs>
    <linearGradient id="fade" x1="0" y1="0" x2="0" y2="1">
      <stop offset="0%" stop-color="white" stop-opacity="0" />
      <stop offset="100%" stop-color="black" stop-opacity="1" />
    </linearGradient>
  </defs>
  <rect x="0" y="280" width="600" height="120" rx="16" fill="url(#fade)" />
</svg>
